<?xml version="1.0" encoding="UTF-8" standalone="no"?>
<svg width="100px" height="100px" viewBox="0 0 100 100" version="1.1" xmlns="http://www.w3.org/2000/svg" xmlns:xlink="http://www.w3.org/1999/xlink" xmlns:sketch="http://www.bohemiancoding.com/sketch/ns">
    <!-- Generator: Sketch 3.1 (8751) - http://www.bohemiancoding.com/sketch -->
    <title>icon-light-on</title>
    <desc>Created with Sketch.</desc>
    <defs></defs>
    <g id="Page-1" stroke="none" stroke-width="1" fill="none" fill-rule="evenodd" sketch:type="MSPage">
        <g id="Artboard-5" sketch:type="MSArtboardGroup" fill="#1A1918">
            <path d="M28.496875,17.8234375 L24.078125,13.4046875 C22.865625,12.1984375 20.871875,12.1984375 19.659375,13.4046875 C18.446875,14.6296875 18.446875,16.6171875 19.659375,17.8234375 L24.078125,22.2421875 C25.290625,23.4671875 27.284375,23.4671875 28.496875,22.2421875 C29.709375,21.0359375 29.709375,19.0484375 28.496875,17.8234375 Z M9.375,43.75 L3.125,43.75 C1.40625,43.75 0,45.15625 0,46.875 C0,48.59375 1.40625,50 3.125,50 L9.375,50 C11.0875,50 12.5,48.59375 12.5,46.875 C12.5,45.15625 11.0875,43.75 9.375,43.75 Z M96.875,50 L90.625,50 C88.90625,50 87.5,51.40625 87.5,53.125 C87.5,54.84375 88.90625,56.25 90.625,56.25 L96.875,56.25 C98.59375,56.25 100,54.84375 100,53.125 C100,51.40625 98.59375,50 96.875,50 Z M84.746875,19.6546875 C83.534375,18.4484375 81.546875,18.4484375 80.328125,19.6546875 L75.909375,24.0734375 C74.696875,25.2984375 74.696875,27.2859375 75.909375,28.4921875 C77.128125,29.7171875 79.115625,29.7171875 80.328125,28.4921875 L84.746875,24.0734375 C85.965625,22.8671875 85.965625,20.8796875 84.746875,19.6546875 Z M53.125,12.5125 C53.98125,12.5125 54.7625,12.15625 55.33125,11.5875 C55.9,11.025 56.25,10.24375 56.25,9.375 L56.25,3.125 C56.25,1.40625 54.84375,0 53.13125,0 C51.8375,0 50.725,0.79375 50.25,1.91875 L50,3.1375 L50.00625,9.3875 C50.00625,11.10625 51.40625,12.5125 53.125,12.5125 Z M50,25 C36.19375,25 25,36.19375 25,50 C25,59.23125 30.05625,67.2 37.5,71.53125 L37.5,81.25 L62.5,81.25 L62.5,71.53125 C69.9375,67.2 75,59.23125 75,50 C75,36.19375 63.80625,25 50,25 Z M59.35,66.1375 L56.25,67.94375 L56.25,75 L43.75,75 L43.75,67.94375 L40.64375,66.1375 C34.7625,62.70625 31.25,56.675 31.25,50 C31.25,39.6625 39.65625,31.25 50,31.25 C60.3375,31.25 68.75,39.6625 68.75,50 C68.75,56.675 65.2375,62.70625 59.35,66.1375 L59.35,66.1375 Z M37.5,93.75 L43.93125,93.75 L43.75,94.53125 C43.75,97.54375 46.5625,100 50,100 C53.43125,100 56.25,97.54375 56.25,94.53125 L56.0625,93.75 L62.5,93.75 L62.5,87.5 L37.5,87.5 L37.5,93.75" id="icon-light-on" sketch:type="MSShapeGroup"></path>
        </g>
    </g>
</svg>